<?xml version="1.0" standalone="no"?>
<!DOCTYPE svg PUBLIC "-//W3C//DTD SVG 20010904//EN"
 "http://www.w3.org/TR/2001/REC-SVG-20010904/DTD/svg10.dtd">
<svg version="1.0" xmlns="http://www.w3.org/2000/svg"
 width="512.000000pt" height="512.000000pt" viewBox="0 0 512.000000 512.000000"
 preserveAspectRatio="xMidYMid meet">
<metadata>
Created by potrace 1.11, written by Peter Selinger 2001-2013
</metadata>
<g transform="translate(0.000000,512.000000) scale(0.100000,-0.100000)"
fill="#000000" stroke="none">
<path d="M2188 5115 c-2 -2 -25 -6 -53 -10 -66 -8 -185 -49 -260 -88 -142 -74
-272 -202 -355 -349 -24 -45 -37 -58 -55 -58 -40 0 -200 -57 -256 -91 -150
-91 -253 -198 -324 -338 -79 -157 -105 -315 -80 -486 l12 -80 -33 -43 c-94
-124 -106 -310 -28 -450 14 -26 50 -73 80 -104 44 -46 54 -63 54 -90 0 -19 4
-59 9 -89 5 -30 12 -74 15 -99 3 -25 15 -112 26 -195 11 -82 27 -202 36 -265
8 -63 16 -128 19 -145 2 -16 7 -52 10 -80 4 -27 8 -61 10 -75 2 -14 9 -63 15
-110 5 -47 12 -96 14 -110 3 -14 7 -45 10 -70 10 -81 17 -134 22 -170 3 -19
11 -84 19 -145 18 -132 35 -259 41 -300 2 -16 6 -52 10 -80 3 -27 7 -61 10
-75 2 -14 9 -63 14 -110 6 -47 13 -96 15 -110 2 -14 6 -46 9 -72 3 -26 8 -62
11 -80 2 -18 16 -123 30 -233 36 -289 36 -289 40 -302 4 -10 275 -13 1314 -13
l1309 0 6 27 c3 16 8 51 11 78 3 28 8 64 10 80 7 47 13 93 25 190 6 50 13 106
15 125 2 19 7 58 10 85 4 28 8 57 10 65 2 8 7 40 10 70 3 30 8 66 10 80 2 14
7 45 10 70 3 25 10 77 15 115 6 39 12 90 15 115 3 25 9 77 15 115 5 39 12 90
15 115 5 49 16 125 21 152 1 9 6 48 9 85 4 37 9 70 10 73 2 3 6 33 10 65 4 33
8 71 10 85 2 14 6 45 10 70 3 25 8 56 10 70 2 14 7 50 10 80 3 30 8 66 10 80
2 14 7 43 9 65 9 73 27 210 31 235 11 76 15 110 21 155 3 28 12 91 19 140 8
50 16 113 20 140 3 28 8 70 11 95 3 25 23 81 44 125 187 381 54 833 -305 1042
l-60 34 -2 57 c-3 64 -42 212 -74 275 -82 162 -213 294 -374 375 -124 62 -194
77 -360 77 -115 -1 -164 -5 -207 -19 l-57 -17 -68 54 c-102 82 -239 152 -338
171 -16 4 -41 9 -55 12 -27 6 -236 14 -242 9z"/>
</g>
</svg>
